# xmcd
#
# Track frame offsets: 
#        150
#        22707
#        36727
#        56509
#        84191
#        104318
#        116067
#        134889
#        158280
#        175619
#        194596
#        209633
#
# Disc length: 3100 seconds
#
# Revision: 0
# Processed by: cddbd v1.5.2PL0 Copyright (c) Steve Scherf et al.
# Submitted via: ExactAudioCopyFreeDBPlugin 1.0
#
DISCID=a10c1a0c
DTITLE=Johnny Owen - Jewel In The Pauper's Crown
DYEAR=2019
DGENRE=blues
TTITLE0=Johnny Shines
TTITLE1=Long Train, Long Ride
TTITLE2=Jewel In The Pauper's Crown
TTITLE3=Matilda
TTITLE4=My Son Only Shines At The Rodeo
TTITLE5=Fracasse
TTITLE6=Kiss and Tell
TTITLE7=Periphery
TTITLE8=Butterfly
TTITLE9=Till I Get Home
TTITLE10=Abitibi
TTITLE11=The Negro Magician
EXTD=
EXTT0=
EXTT1=
EXTT2=
EXTT3=
EXTT4=
EXTT5=
EXTT6=
EXTT7=
EXTT8=
EXTT9=
EXTT10=
EXTT11=
PLAYORDER=
